<?xml version="1.0" encoding="utf-8"?>
<!-- Generator: Adobe Illustrator 27.2.0, SVG Export Plug-In . SVG Version: 6.00 Build 0)  -->
<svg version="1.1" id="Layer_1" xmlns="http://www.w3.org/2000/svg" xmlns:xlink="http://www.w3.org/1999/xlink" x="0px" y="0px"
	 viewBox="0 0 48 48" style="enable-background:new 0 0 48 48;" xml:space="preserve">
<style type="text/css">
	.st0{fill:#FFFFFF;}
</style>
<path class="st0" d="M36.8,17.7c-0.5,0-1-0.2-1.4-0.6c-0.4-0.4-0.6-0.9-0.6-1.4v-2.5h-2.5c-0.6,0-1.1-0.2-1.5-0.6
	c-0.4-0.4-0.6-0.9-0.6-1.4s0.2-1,0.6-1.4s0.9-0.6,1.5-0.6h2.5V6.7c0-0.5,0.2-0.9,0.6-1.3c0.4-0.4,0.9-0.6,1.4-0.6s1,0.2,1.4,0.6
	c0.4,0.4,0.6,0.8,0.6,1.3v2.5h2.5c0.5,0,1,0.2,1.4,0.6c0.4,0.4,0.6,0.9,0.6,1.4c0,0.6-0.2,1-0.6,1.4s-0.9,0.6-1.4,0.6h-2.5v2.4
	c0,0.6-0.2,1-0.6,1.5C37.9,17.5,37.4,17.7,36.8,17.7z M12.1,42.3c-0.8,0.3-1.5,0.2-2.2-0.2c-0.7-0.4-1.1-1-1.1-1.8v-31
	C8.9,8,9.4,6.9,10.3,6c0.9-0.9,2-1.3,3.2-1.3h16.5c-0.8,0.9-1.5,1.9-1.9,3c-0.4,1.1-0.7,2.3-0.7,3.6c0,2.2,0.7,4.2,2,5.9
	s3.1,2.8,5.2,3.3c0.8,0.3,1.6,0.4,2.3,0.4s1.5-0.1,2.3-0.4v19.9c0,0.8-0.4,1.4-1.1,1.8c-0.7,0.4-1.4,0.5-2.2,0.2l-11.9-5L12.1,42.3z
	"/>
</svg>
